<?xml version="1.0" encoding="UTF-8"?>
<svg id="Calque_1" xmlns="http://www.w3.org/2000/svg" xmlns:xlink="http://www.w3.org/1999/xlink" version="1.1" viewBox="0 0 64 64">
  <!-- Generator: Adobe Illustrator 29.8.2, SVG Export Plug-In . SVG Version: 2.1.1 Build 3)  -->
  <defs>
    <style>
      .st0 {
        fill: url(#Dégradé_sans_nom_381);
      }

      .st1 {
        fill: #fff;
      }

      .st2 {
        fill: url(#Dégradé_sans_nom_38);
      }
    </style>
    <linearGradient id="Dégradé_sans_nom_38" data-name="Dégradé sans nom 38" x1="-11" y1="47.98" x2="48.08" y2="-11.09" gradientUnits="userSpaceOnUse">
      <stop offset="0" stop-color="#ffd500"/>
      <stop offset="1" stop-color="#7f791f"/>
    </linearGradient>
    <linearGradient id="Dégradé_sans_nom_381" data-name="Dégradé sans nom 38" x1="8.74" y1="72.74" x2="72.74" y2="8.74" xlink:href="#Dégradé_sans_nom_38"/>
  </defs>
  <path class="st2" d="M3.84,50.74c-1.42.24-2.68.49-3.76.75-.05-.49-.08-.99-.08-1.49V14C0,6.27,6.27,0,14,0h28.93C29.1.1,10.13,5.07,7.1,11.69c-.13.33-.2.62-.2.85,0,.66.46.93,1.09.93,1.05,0,2.5-.79,2.5-1.62,0-.33-.19-.66-.75-.95C14.18,5.47,30.22,2.3,42.76,2.21h.6c3.49,0,10.99.29,13.1,2.66.23.27.33.6.33.99,0,6.19-26.9,28.29-30.03,30.66-8.33,6.42-17.12,11.39-22.92,14.22Z"/>
  <path class="st0" d="M50,0h-6.84c3.82,0,12.28.76,14.85,3.59.46.53.66,1.15.66,1.88,0,8.19-27.7,28.54-31.52,31.48-6.91,5.33-10.34,8.89-15.93,12.05,3.36-.46,9.71-1.02,16.56-1.02,12.45,0,26.47,1.84,26.94,9.35-.07.39-.73.69-1.22.69-.33,0-.63-.13-.63-.46,0-.07,0-.1.03-.17-.03-6.19-10.07-8-21.23-8s-22.4,1.65-27.2,2.6l-.37.04c-1.35.65-2.58,1.16-3.65,1.49,1.56,6.03,7.04,10.48,13.55,10.48h36c7.73,0,14-6.27,14-14v-18.22c0,.16-.07.32-.3.49-5.3,3.98-9.22,5.99-11.98,6.72-.92.26-1.75.36-2.44.36-.59,0-1.12-.07-1.58-.23-1.09-.36-1.78-1.09-2.14-1.98-.23-.59-.36-1.22-.36-1.91,0-3.98,3.92-8.89,7.67-8.89h.33c.23,0,.46.07.69.13.66.33.89.96.89,1.62,0,1.28-.79,2.73-.82,2.76-.17.13-.5.23-.86.23-.76,0-1.74-.36-1.74-1.02.23-.36,1.38-1.61,1.38-2.1,0-.1-.03-.17-.17-.17-1.77.82-6.12,5.27-6.12,8.27,0,.32.03.62.16.92.23.56.66,1.02,1.35,1.22.23.09.56.13.89.13.79,0,1.81-.2,2.8-.46,2.64-.69,5.8-2.57,10.93-6.42.2-.14.43-.2.63-.2.43,0,.79.23.79.53V14c0-7.73-6.27-14-14-14ZM24.95,60.96h-3.01v-8.38h3.01c2.75,0,4.13,2.1,4.13,4.2s-1.38,4.18-4.13,4.18ZM38.8,60.99h-.89l-3.11-7.76v.56h-3.88v2.36h3.8v1.23h-3.8v2.37h3.9v1.21h-5.12v-8.38h4.84l.26.65v-.65h1.06l2.5,6.27,2.52-6.27h1.29l-3.37,8.41ZM24.95,53.79h-1.79v5.96h1.79c1.95,0,2.93-1.48,2.93-2.97s-.98-2.99-2.93-2.99Z"/>
  <g>
    <path class="st1" d="M34.54,52.58l.26.65v-.65h-.26Z"/>
    <path class="st1" d="M34.54,52.58l.26.65v-.65h-.26Z"/>
  </g>
</svg>